<?xml version="1.0" encoding="utf-8"?>
<svg version="1.1" xmlns="http://www.w3.org/2000/svg" x="0px" y="0px" viewBox="0 0 1024 1024" xml:space="preserve">
<path d="M978.0,504.9L981.0,508.5L985.7,509.8L990.1,511.7L992.0,516.8L989.6,525.4L977.8,546.5L973.4,551.6L964.1,553.6L955.8,551.4L947.6,548.2L938.2,546.4L923.5,546.5L913.5,545.2L903.2,541.8L900.4,530.0L908.6,518.5L940.8,490.6L954.0,481.7L967.5,478.3L978.0,485.8L978.9,490.0L977.8,500.3L978.0,504.9ZM804.3,437.3L806.7,441.6L810.3,443.2L814.6,442.6L819.0,440.3L824.7,462.8L824.9,467.1L821.5,468.2L812.1,467.4L810.2,468.5L811.1,473.1L815.0,481.2L815.9,486.3L814.2,493.2L810.2,497.3L805.1,499.1L784.4,502.1L776.2,501.5L771.8,496.7L762.5,499.8L756.7,495.9L752.6,489.4L748.3,484.8L750.0,479.2L750.6,473.6L749.3,468.5L745.1,464.2L746.3,462.5L748.3,458.0L736.4,457.3L733.3,450.6L736.2,435.9L740.2,431.7L748.5,431.6L755.9,429.5L757.0,419.6L766.0,423.5L768.8,425.5L773.0,423.1L776.1,423.4L779.2,424.7L783.5,425.5L794.2,425.1L798.2,425.5L798.5,426.4L805.7,431.2L807.0,431.4L809.8,435.2L808.6,436.1L804.3,437.3ZM523.0,417.5L560.4,408.4L575.9,413.6L591.2,433.4L591.8,450.2L585.0,470.4L573.6,479.6L560.8,463.1L553.2,463.1L543.8,470.4L531.1,469.7L516.4,465.6L500.2,463.1L503.6,459.1L507.0,457.5L515.4,456.2L525.7,451.1L554.8,445.0L560.8,437.2L556.0,426.1L532.2,429.6L523.0,417.5ZM541.1,420.8L551.6,413.6L564.1,415.2L580.2,419.6L601.6,420.8L586.6,438.3L561.7,455.6L534.0,468.2L510.8,471.4L510.0,453.1L511.7,437.9L520.9,410.6L527.4,411.8L531.6,413.6L541.1,420.8ZM98.3,329.3L92.8,338.1L94.1,345.6L101.0,348.4L112.0,343.4L109.5,349.4L103.5,357.6L96.4,365.0L90.9,368.5L83.7,366.1L79.9,355.2L73.3,357.5L68.4,362.4L40.3,407.2L34.2,414.1L32.0,401.7L36.7,383.9L45.1,368.0L53.7,361.1L57.4,357.5L61.6,340.1L64.2,334.4L71.9,330.0L75.0,333.7L76.5,347.2L77.4,342.2L79.0,337.1L81.2,332.6L83.9,329.3L88.4,325.9L94.5,322.6L99.0,322.5L98.3,329.3ZM658.6,648.3L688.4,658.1L704.4,675.4L681.3,694.8L628.1,694.6L612.8,664.4L634.0,651.8L658.6,648.3ZM609.9,666.8L645.7,648.3L701.4,659.3L670.5,691.8L611.1,688.1L609.9,666.8ZM686.7,655.3L703.7,686.8L682.6,701.5L639.6,697.4L612.1,671.7L613.7,647.3L642.9,638.4L686.7,655.3ZM640.1,616.9L631.5,562.2L682.9,525.3L691.2,579.7L640.1,616.9ZM685.6,524.8L694.3,579.5L629.8,616.4L621.1,561.8L685.6,524.8ZM573.4,549.9L581.9,525.0L610.9,499.2L644.0,483.7L665.0,488.7L658.6,508.5L629.6,527.6L595.8,542.5L573.4,549.9ZM751.8,545.8L733.5,510.7L707.8,484.9L700.4,465.2L737.1,454.2L782.4,472.6L781.2,494.1L760.4,516.3L751.8,545.8ZM445.4,512.8L446.7,484.4L450.0,460.1L457.9,439.1L476.7,421.2L485.6,449.4L481.6,471.5L466.8,491.3L445.4,512.8ZM729.5,512.3L747.4,447.9L765.4,427.9L808.4,420.7L804.3,458.0L788.9,478.0L729.5,512.3ZM550.4,490.4L544.3,426.6L546.5,398.8L560.4,413.0L565.4,432.0L564.8,452.4L559.0,472.3L550.4,490.4ZM471.5,489.2L426.7,401.4L485.7,397.6L494.7,414.1L480.5,447.9L471.5,489.2ZM505.8,446.6L481.1,355.1L522.1,366.8L526.3,387.0L514.3,413.6L505.8,446.6ZM459.8,446.1L452.3,417.8L457.8,381.3L474.7,354.5L500.3,355.4L503.7,374.5L490.9,403.1L472.4,430.7L459.8,446.1ZM448.0,421.4L485.8,364.3L505.4,351.9L539.6,360.8L524.5,392.6L503.4,403.7L476.7,409.5L448.0,421.4ZM110.1,361.7L147.1,327.7L193.7,323.5L201.7,341.5L161.4,378.1L116.0,394.3L110.1,361.7Z"/>
</svg>
